<?xml version="1.0" encoding="utf-8"?>
<!-- Generator: Adobe Illustrator 20.1.0, SVG Export Plug-In . SVG Version: 6.00 Build 0)  -->
<svg version="1.1" id="Layer_1" xmlns="http://www.w3.org/2000/svg" xmlns:xlink="http://www.w3.org/1999/xlink" x="0px" y="0px"
	 viewBox="0 0 81.9 81.9" style="enable-background:new 0 0 81.9 81.9;" xml:space="preserve">
<style type="text/css">
	.st0{fill:none;}
</style>
<title>icon-close</title>
<path d="M70,12c-1.1-1.1-2.9-1.1-4,0L41,37L16,12c-1.1-1.1-2.9-1-4,0.1c-1,1.1-1,2.8,0,3.9l25,25L12,66c-1.1,1.1-1.1,2.9,0,4
	c0.5,0.5,1.3,0.8,2,0.8c0.7,0,1.4-0.3,2-0.8l25-25l25,25c0.5,0.5,1.3,0.8,2,0.8c0.7,0,1.4-0.3,2-0.8c1.1-1.1,1.1-2.9,0-4L45,41
	l25-25C71.1,14.9,71.1,13.1,70,12z"/>
<rect class="st0" width="81.9" height="81.9"/>
</svg>
