<svg id="Layer_1" data-name="Layer 1" xmlns="http://www.w3.org/2000/svg" viewBox="0 0 91.6 91.57"><title>icon_settings</title><path d="M88.7,35.78c-2-.2-4.1-.4-6.5-.5a44.1,44.1,0,0,0-3.2-7.8c1.6-1.8,3-3.5,4.2-5a2.41,2.41,0,0,0,.1-3A45.83,45.83,0,0,0,72.1,8.28a2.4,2.4,0,0,0-3,.1c-1.5,1.2-3.2,2.7-5,4.2a37.67,37.67,0,0,0-7.8-3.2c-.1-2.4-.3-4.6-.5-6.5A2.54,2.54,0,0,0,53.7.68a47.15,47.15,0,0,0-15.9,0,2.54,2.54,0,0,0-2.1,2.2c-.2,1.9-.4,4.1-.5,6.5a44.1,44.1,0,0,0-7.8,3.2c-1.8-1.6-3.5-3-5-4.2a2.41,2.41,0,0,0-3-.1A45.83,45.83,0,0,0,8.2,19.47a2.4,2.4,0,0,0,.1,3c1.2,1.5,2.7,3.2,4.2,5a37.67,37.67,0,0,0-3.2,7.8c-2.3.1-4.5.3-6.4.5a2.54,2.54,0,0,0-2.2,2.1,42.94,42.94,0,0,0-.7,7.9,42.19,42.19,0,0,0,.7,7.9,2.54,2.54,0,0,0,2.2,2.1c1.9.2,4.1.4,6.5.5a44.1,44.1,0,0,0,3.2,7.8c-1.6,1.8-3,3.5-4.2,5a2.41,2.41,0,0,0-.1,3,45.83,45.83,0,0,0,11.2,11.2,2.4,2.4,0,0,0,3-.1c1.5-1.3,3.2-2.7,5-4.2a37.67,37.67,0,0,0,7.8,3.2c.2,2.4.3,4.6.5,6.5a2.54,2.54,0,0,0,2.1,2.2,42.94,42.94,0,0,0,7.9.7,42.19,42.19,0,0,0,7.9-.7,2.54,2.54,0,0,0,2.1-2.2c.2-1.9.4-4.1.5-6.5A44.1,44.1,0,0,0,64.1,79c1.8,1.6,3.5,3,5,4.2a2.41,2.41,0,0,0,3,.1,45.83,45.83,0,0,0,11.2-11.2,2.4,2.4,0,0,0-.1-3c-1.2-1.5-2.7-3.2-4.2-5a37.67,37.67,0,0,0,3.2-7.8c2.4-.2,4.6-.3,6.5-.5a2.54,2.54,0,0,0,2.2-2.1,42.94,42.94,0,0,0,.7-7.9,42.19,42.19,0,0,0-.7-7.9A2.27,2.27,0,0,0,88.7,35.78ZM86.3,51c-1.9.2-4,.3-6.2.4a2.69,2.69,0,0,0-2.3,1.9,34.28,34.28,0,0,1-4,9.7,2.42,2.42,0,0,0,.3,3c1.5,1.7,2.9,3.3,4.1,4.7A42,42,0,0,1,70.9,78c-1.4-1.2-3-2.6-4.7-4.1a2.74,2.74,0,0,0-3-.3,31.6,31.6,0,0,1-9.7,4,2.44,2.44,0,0,0-1.9,2.3c-.1,2.2-.3,4.3-.4,6.2a45.22,45.22,0,0,1-10.4,0c-.2-1.9-.3-4-.4-6.2a2.69,2.69,0,0,0-1.9-2.3,34.28,34.28,0,0,1-9.7-4,2.42,2.42,0,0,0-3,.3c-1.7,1.5-3.3,2.9-4.7,4.1a42,42,0,0,1-7.3-7.3c1.2-1.4,2.6-3,4.1-4.7a2.72,2.72,0,0,0,.3-3,31.6,31.6,0,0,1-4-9.7,2.44,2.44,0,0,0-2.3-1.9c-2.2-.1-4.3-.3-6.2-.4a45.33,45.33,0,0,1-.3-5.2,46.66,46.66,0,0,1,.3-5.2c1.9-.2,4-.3,6.2-.4a2.69,2.69,0,0,0,2.3-1.9,34.28,34.28,0,0,1,4-9.7,2.42,2.42,0,0,0-.3-3c-1.5-1.7-2.9-3.3-4.1-4.7a42,42,0,0,1,7.3-7.3c1.4,1.2,3,2.6,4.7,4.1a2.72,2.72,0,0,0,3,.3,31.6,31.6,0,0,1,9.7-4,2.44,2.44,0,0,0,1.9-2.3c.1-2.2.3-4.3.4-6.2a45.22,45.22,0,0,1,10.4,0c.2,1.9.3,4,.4,6.2A2.69,2.69,0,0,0,53.5,14a34.28,34.28,0,0,1,9.7,4,2.42,2.42,0,0,0,3-.3c1.7-1.5,3.3-2.9,4.7-4.1a42,42,0,0,1,7.3,7.3c-1.2,1.4-2.6,3-4.1,4.7a2.74,2.74,0,0,0-.3,3,31.6,31.6,0,0,1,4,9.7,2.44,2.44,0,0,0,2.3,1.9c2.2.1,4.3.3,6.2.4a45.33,45.33,0,0,1,.3,5.2A46.66,46.66,0,0,1,86.3,51Z"/><path d="M45.8,20.48a25.3,25.3,0,1,0,25.3,25.3A25.33,25.33,0,0,0,45.8,20.48Zm0,45.5A20.2,20.2,0,1,1,66,45.77,20.27,20.27,0,0,1,45.8,66Z"/></svg>