<?xml version="1.0" encoding="utf-8"?>
<!-- Generator: Adobe Illustrator 20.1.0, SVG Export Plug-In . SVG Version: 6.00 Build 0)  -->
<svg version="1.1" id="Layer_1" xmlns="http://www.w3.org/2000/svg" xmlns:xlink="http://www.w3.org/1999/xlink" x="0px" y="0px"
	 viewBox="0 0 100.9 100.9" style="enable-background:new 0 0 100.9 100.9;" xml:space="preserve">
<style type="text/css">
	.st0{fill:none;}
</style>
<title>icon_arrow-down</title>
<g>
	<path d="M66.8,50.5c0,2.3-0.8,4.5-2.5,6.3L38.9,86.6c-1.6,1.9-4.4,2.1-6.3,0.5c-1.9-1.6-2.1-4.4-0.5-6.3l25.5-30.1l0.1-0.1
		c0,0,0-0.1,0-0.2l-0.3-0.3L32,20.1c-1.6-1.9-1.4-4.7,0.5-6.3c1.9-1.6,4.7-1.4,6.3,0.5l25.4,29.9C65.9,45.9,66.7,48.2,66.8,50.5z"/>
	<rect class="st0" width="100.9" height="100.9"/>
</g>
</svg>
