<?xml version="1.0" encoding="utf-8"?>
<!-- Generator: Adobe Illustrator 20.1.0, SVG Export Plug-In . SVG Version: 6.00 Build 0)  -->
<svg version="1.1" id="Layer_1" xmlns="http://www.w3.org/2000/svg" xmlns:xlink="http://www.w3.org/1999/xlink" x="0px" y="0px"
	 viewBox="0 0 100.9 100.9" style="enable-background:new 0 0 100.9 100.9;" xml:space="preserve">
<style type="text/css">
	.st0{fill:none;}
</style>
<title>icon_arrow-down</title>
<g>
	<path d="M34.1,50.4c0-2.3,0.8-4.5,2.5-6.3L62,14.3c1.6-1.9,4.4-2.1,6.3-0.5c1.9,1.6,2.1,4.4,0.5,6.3L43.3,50.2l-0.1,0.1
		c0,0,0,0.1,0,0.2l0.3,0.3l25.4,30c1.6,1.9,1.4,4.7-0.5,6.3c-1.9,1.6-4.7,1.4-6.3-0.5L36.7,56.7C35,55,34.2,52.7,34.1,50.4z"/>
	<rect class="st0" width="100.9" height="100.9"/>
</g>
</svg>
