<?xml version="1.0" encoding="utf-8"?>
<!-- Generator: Adobe Illustrator 20.1.0, SVG Export Plug-In . SVG Version: 6.00 Build 0)  -->
<svg version="1.1" id="Layer_1" xmlns="http://www.w3.org/2000/svg" xmlns:xlink="http://www.w3.org/1999/xlink" x="0px" y="0px"
	 viewBox="0 0 127.6 127.6" style="enable-background:new 0 0 127.6 127.6;" xml:space="preserve">
<g>
	<path d="M110.4,109.7c12-12,18.7-28.1,18.7-45.1c0-17-6.6-33.1-18.7-45.1c-12-12-28.1-18.7-45.1-18.7c-17,0-33.1,6.6-45.1,18.7
		c-12,12-18.7,28.1-18.7,45.1c0,17,6.6,33.1,18.7,45.1c12.1,12,28.1,18.7,45.1,18.7C82.4,128.4,98.4,121.8,110.4,109.7z M7.2,64.6
		c0-32.1,26.1-58.2,58.2-58.2s58.2,26.1,58.2,58.2c0,32.1-26.1,58.2-58.2,58.2S7.2,96.7,7.2,64.6z"/>
	<path d="M94.3,93.6c1.1-1.1,1.1-2.9,0-4l-25-25l25-25c1.1-1.1,1.1-2.9,0-4c-1.1-1.1-2.9-1.1-4,0l-25,25l-25-25
		c-1.1-1.1-2.9-1.1-4,0c-0.5,0.5-0.8,1.3-0.8,2c0,0.7,0.3,1.4,0.8,2l25,25l-25,25c-0.5,0.5-0.8,1.3-0.8,2c0,0.7,0.3,1.4,0.8,2
		c1.1,1.1,2.9,1.1,4,0l25-25l25,25C91.5,94.7,93.2,94.7,94.3,93.6z"/>
</g>
</svg>
